/* XPM */
static char * lpi_bug_xpm[] = {
"16 16 124 2",
"  	c None",
". 	c #C4A100",
"+ 	c #C5A100",
"@ 	c #C4A000",
"# 	c #C6A300",
"$ 	c #ECDE8B",
"% 	c #CAAB15",
"& 	c #C6A400",
"* 	c #CAAA16",
"= 	c #CDAF29",
"- 	c #C5A200",
"; 	c #D4B835",
"> 	c #FFFFFF",
", 	c #FDFAE4",
"' 	c #DEC856",
") 	c #D7BE3F",
"! 	c #F3E9A9",
"~ 	c #D0B42D",
"{ 	c #C8A200",
"] 	c #EEE191",
"^ 	c #F7EA84",
"/ 	c #F2DF3F",
"( 	c #FCF8D6",
"_ 	c #FDFAE8",
": 	c #FCF7D1",
"< 	c #FAF3B7",
"[ 	c #F9F4D0",
"} 	c #C5A205",
"| 	c #C9A811",
"1 	c #C5A201",
"2 	c #C7A50D",
"3 	c #FDFBE8",
"4 	c #F2DE35",
"5 	c #0E0D01",
"6 	c #131104",
"7 	c #F1DC26",
"8 	c #F0D811",
"9 	c #FAF3B9",
"0 	c #E1CC60",
"a 	c #C9A912",
"b 	c #FEFCED",
"c 	c #F8ED90",
"d 	c #F2DB1D",
"e 	c #2B2705",
"f 	c #332F07",
"g 	c #F1DA1A",
"h 	c #FFFFFD",
"i 	c #DDC64E",
"j 	c #FDFADF",
"k 	c #F3DD27",
"l 	c #F3DD22",
"m 	c #F4DE26",
"n 	c #48410C",
"o 	c #554D0E",
"p 	c #FAF2AC",
"q 	c #F7EFBA",
"r 	c #C6A301",
"s 	c #F3E7A4",
"t 	c #FAF09D",
"u 	c #F5DF2A",
"v 	c #F6E02F",
"w 	c #655D15",
"x 	c #786D18",
"y 	c #F3DD26",
"z 	c #FAF1A8",
"A 	c #D0B32B",
"B 	c #CCAD24",
"C 	c #FEFBE7",
"D 	c #F6E131",
"E 	c #F7E237",
"F 	c #F8E33C",
"G 	c #F8EB7F",
"H 	c #FEFCEC",
"I 	c #F3E9AE",
"J 	c #CDAE20",
"K 	c #F5EBAF",
"L 	c #FAF1A0",
"M 	c #F7E235",
"N 	c #F8E43E",
"O 	c #3A3510",
"P 	c #FFFEFB",
"Q 	c #CAAA1A",
"R 	c #C8A401",
"S 	c #C7A300",
"T 	c #E8D67A",
"U 	c #FEFCE9",
"V 	c #FAEF8D",
"W 	c #F9E540",
"X 	c #3A3511",
"Y 	c #FDF8D0",
"Z 	c #DFC858",
"` 	c #C7A40B",
" .	c #EADA7E",
"..	c #DDC653",
"+.	c #CAAA1C",
"@.	c #FEFDF3",
"#.	c #F8E546",
"$.	c #F9E64A",
"%.	c #FDF4B2",
"&.	c #FEFDF1",
"*.	c #FDF8CD",
"=.	c #FCF7C8",
"-.	c #FBF8DC",
";.	c #C7A401",
">.	c #C5A000",
",.	c #C7A202",
"'.	c #C6A402",
").	c #F9F3C8",
"!.	c #FAEE8C",
"~.	c #FEFADD",
"{.	c #F4EAAC",
"].	c #C7A60F",
"^.	c #DDC650",
"/.	c #F3E9AA",
"(.	c #D7BD3E",
"_.	c #C6A100",
":.	c #F0E399",
"<.	c #E4D16C",
"[.	c #C7A302",
"}.	c #C7A403",
"|.	c #C9A508",
"1.	c #CCAC21",
"2.	c #D1B534",
"3.	c #D2B42D",
"          . +             . @   ",
"          # $ %       & * = -   ",
"          ; > , ' @ ) ! > ~     ",
"        { ] ^ / ( _ : < [ -     ",
"@ } | 1 2 3 4 5 6 7 8 9 0       ",
"  a > > b c d e f d g h 2       ",
"    i j k l m n o m l p q a     ",
"    r s t u v w x v u y z > A - ",
"      B C D E F F E D G H I J + ",
"    r K L M N O O N M P Q R     ",
"  S T > U V W X X W E Y Z       ",
"  `  ...+.@.#.$.%.&.*.=.-.;.    ",
"@ >.,.  '.).!.~.{.].^./.> (.    ",
"        _.:.> <.[.    }.|.1.@   ",
"          2.3.[.            >.  ",
"          @                     "};
